<svg width="44" height="44" viewBox="0 0 44 44" fill="none" xmlns="http://www.w3.org/2000/svg">
<path d="M40.5982 0.205927C40.7974 0.329111 40.9618 0.501127 41.0759 0.705666C41.19 0.910204 41.2499 1.14049 41.25 1.37468V42.6247C41.25 42.9894 41.1051 43.3391 40.8473 43.597C40.5894 43.8548 40.2397 43.9997 39.875 43.9997H31.625C31.2603 43.9997 30.9106 43.8548 30.6527 43.597C30.3949 43.3391 30.25 42.9894 30.25 42.6247V38.4997H27.5V42.6247C27.5 42.9894 27.3551 43.3391 27.0973 43.597C26.8394 43.8548 26.4897 43.9997 26.125 43.9997H1.375C1.01033 43.9997 0.660591 43.8548 0.402728 43.597C0.144866 43.3391 0 42.9894 0 42.6247V27.4997C0.000219029 27.2112 0.0911573 26.9301 0.259944 26.6962C0.42873 26.4623 0.666815 26.2873 0.9405 26.1962L16.5 21.0097V12.3747C16.5 12.1195 16.571 11.8694 16.705 11.6523C16.8391 11.4352 17.0309 11.2597 17.259 11.1454L39.259 0.145427C39.4688 0.0403928 39.7021 -0.00918887 39.9365 0.00140107C40.1709 0.011991 40.3987 0.0824001 40.5982 0.205927ZM16.5 23.9082L2.75 28.4897V41.2497H16.5V23.9082ZM19.25 41.2497H24.75V37.1247C24.75 36.76 24.8949 36.4103 25.1527 36.1524C25.4106 35.8945 25.7603 35.7497 26.125 35.7497H31.625C31.9897 35.7497 32.3394 35.8945 32.5973 36.1524C32.8551 36.4103 33 36.76 33 37.1247V41.2497H38.5V3.59943L19.25 13.2244V41.2497Z" fill="white"/>
<path d="M5.5 30.25H8.25V33H5.5V30.25ZM11 30.25H13.75V33H11V30.25ZM5.5 35.75H8.25V38.5H5.5V35.75ZM11 35.75H13.75V38.5H11V35.75ZM22 24.75H24.75V27.5H22V24.75ZM27.5 24.75H30.25V27.5H27.5V24.75ZM22 30.25H24.75V33H22V30.25ZM27.5 30.25H30.25V33H27.5V30.25ZM33 24.75H35.75V27.5H33V24.75ZM33 30.25H35.75V33H33V30.25ZM22 19.25H24.75V22H22V19.25ZM27.5 19.25H30.25V22H27.5V19.25ZM33 19.25H35.75V22H33V19.25ZM22 13.75H24.75V16.5H22V13.75ZM27.5 13.75H30.25V16.5H27.5V13.75ZM33 13.75H35.75V16.5H33V13.75ZM33 8.25H35.75V11H33V8.25Z" fill="white"/>
</svg>
