<svg width="34" height="34" viewBox="0 0 34 34" fill="none" xmlns="http://www.w3.org/2000/svg">
<path fill-rule="evenodd" clip-rule="evenodd" d="M17 0C19.2543 0 21.4163 0.895533 23.0104 2.48959C24.6045 4.08365 25.5 6.24566 25.5 8.5V12.8563C26.6999 13.1012 27.7784 13.7532 28.5529 14.7019C29.3274 15.6506 29.7502 16.8378 29.75 18.0625V28.6875C29.75 30.0965 29.1903 31.4477 28.194 32.444C27.1977 33.4403 25.8465 34 24.4375 34H9.5625C8.15354 34 6.80228 33.4403 5.806 32.444C4.80971 31.4477 4.25 30.0965 4.25 28.6875V18.0625C4.24975 16.8378 4.67264 15.6506 5.44711 14.7019C6.22158 13.7532 7.30005 13.1012 8.5 12.8563V8.5C8.5 6.24566 9.39553 4.08365 10.9896 2.48959C12.5837 0.895533 14.7457 0 17 0ZM17 2.125C15.3092 2.125 13.6877 2.79665 12.4922 3.99219C11.2966 5.18774 10.625 6.80925 10.625 8.5V12.75H23.375V8.5C23.375 6.80925 22.7034 5.18774 21.5078 3.99219C20.3123 2.79665 18.6908 2.125 17 2.125Z" fill="white"/>
</svg>
