<svg width="22" height="33" viewBox="0 0 22 33" fill="none" xmlns="http://www.w3.org/2000/svg">
<path d="M20.7978 16.4993L6.50281 32.1984C6.35136 32.3641 6.158 32.4695 5.95192 32.4986C5.74583 32.5278 5.5382 32.4791 5.36034 32.36C5.18249 32.2409 5.04408 32.0578 4.96598 31.8383C4.88788 31.6189 4.87435 31.3749 4.92742 31.1434L7.25572 21.1795L0.561778 17.8125C0.418002 17.7404 0.292561 17.6282 0.19666 17.4858C0.100759 17.3434 0.0373869 17.1753 0.0122041 16.9966C-0.0129788 16.8178 0.000812765 16.6339 0.052346 16.4613C0.103879 16.2887 0.191549 16.1328 0.307524 16.0075L14.6025 0.308369C14.754 0.142692 14.9473 0.0373306 15.1534 0.00818592C15.3595 -0.0209588 15.5672 0.0276941 15.745 0.146803C15.9229 0.265911 16.0613 0.449013 16.1394 0.668477C16.2175 0.887941 16.231 1.13186 16.1779 1.36342L13.8442 11.338L20.5384 14.7009C20.6811 14.7734 20.8055 14.8854 20.9006 15.0272C20.9957 15.169 21.0586 15.3361 21.0838 15.5139C21.109 15.6916 21.0956 15.8745 21.0449 16.0463C20.9942 16.2181 20.9077 16.3736 20.7931 16.499L20.7978 16.4993Z" fill="#5BCCC8"/>
</svg>
