<svg width="32" height="32" viewBox="0 0 32 32" fill="none" xmlns="http://www.w3.org/2000/svg">
<path d="M29.3072 22.6524C30.8336 19.7344 31.3839 16.4034 30.8772 13.1486C30.3704 9.89379 28.8334 6.88675 26.4919 4.56915C25.3588 3.43855 24.0634 2.48348 22.6485 1.73814C20.4361 0.594043 17.9814 -0.00203843 15.4911 5.17476e-05C13.0009 0.00214192 10.5478 0.602343 8.33834 1.75015C6.93549 2.48635 5.65582 3.43639 4.54526 4.56618C3.10482 6.00128 1.96187 7.70666 1.18191 9.5846C0.401951 11.4625 0.000315761 13.4761 1.97316e-05 15.5099C-0.00027495 17.5437 0.400776 19.5578 1.18019 21.4367C1.9596 23.3156 3.10206 25.0224 4.54208 26.4593C5.66773 27.5994 6.96894 28.5516 8.39609 29.2796C10.6086 30.4237 13.0632 31.0198 15.5535 31.0177C18.0438 31.0156 20.4968 30.4154 22.7063 29.2676C24.1046 28.5337 25.3806 27.5874 26.4887 26.4623L26.5848 26.3659C27.673 25.2714 28.5907 24.0196 29.3072 22.6524ZM25.1353 5.8858C26.0099 6.75465 26.7794 7.72322 27.4279 8.77159L23.2818 11.5344C22.3711 9.93129 21.0423 8.60533 19.4372 7.69808L22.191 3.54602C23.2659 4.2005 24.255 4.9865 25.1353 5.8858ZM7.77351 11.3763L3.82349 8.73792C5.07041 6.7029 6.77923 4.99038 8.81156 3.73907L11.4692 7.69407C9.92102 8.55803 8.64483 9.83697 7.78422 11.387L7.77351 11.3763ZM5.92 25.1212C5.02936 24.2376 4.25204 23.2467 3.60593 22.1713L7.7734 19.3871C8.23435 20.1888 8.8011 20.9252 9.45544 21.5782C10.1108 22.2412 10.8613 22.8029 11.6822 23.2447L8.89632 27.4289C7.8102 26.7866 6.79779 26.0271 5.87727 25.1641L5.92 25.1212ZM18.0973 21.6779C17.2994 22.0175 16.4412 22.1929 15.5739 22.1936C14.7066 22.1943 13.848 22.0204 13.0492 21.6821C12.2168 21.3481 11.4605 20.8493 10.8256 20.2158C10.1907 19.5822 9.69028 18.827 9.35445 17.9953C9.01545 17.1954 8.83931 16.3361 8.83633 15.4674C8.83334 14.5988 9.00358 13.7384 9.33708 12.9365C9.67628 12.1045 10.1769 11.348 10.8101 10.7107C11.7504 9.78622 12.9392 9.15501 14.2319 8.89379C15.5246 8.63258 16.8655 8.75262 18.0916 9.23932C18.9209 9.57339 19.6745 10.0711 20.3074 10.7027C21.2362 11.6432 21.8713 12.8336 22.1351 14.1287C22.3989 15.4237 22.28 16.7673 21.793 17.9956C21.4551 18.8269 20.9545 19.5856 20.32 20.2214C19.6873 20.8548 18.9306 21.3506 18.0973 21.6779ZM19.6823 23.2594C20.4432 22.8203 21.1452 22.2839 21.7658 21.6641C22.3931 21.0387 22.9255 20.3248 23.3459 19.5451L27.328 22.2156C26.0729 24.2444 24.3661 25.955 22.3399 27.2144L19.6823 23.2594Z" fill="#5BCCC8"/>
</svg>
