<svg width="90" height="90" viewBox="0 0 90 90" fill="none" xmlns="http://www.w3.org/2000/svg">
<path d="M45 5.625C23.2537 5.625 5.625 23.2537 5.625 45C5.625 66.7463 23.2537 84.375 45 84.375C66.7463 84.375 84.375 66.7463 84.375 45C84.375 23.2537 66.7463 5.625 45 5.625ZM9.375 45C9.37504 39.183 10.7995 33.4544 13.524 28.3148C16.2485 23.1753 20.1901 18.781 25.0044 15.5161C29.8188 12.2511 35.3594 10.2147 41.1422 9.58475C46.9251 8.95483 52.7742 9.75057 58.1786 11.9024C63.583 14.0543 68.3782 17.4968 72.1454 21.9293C75.9125 26.3617 78.537 31.6492 79.7894 37.3298C81.0419 43.0105 80.8843 48.9113 79.3303 54.517C77.7764 60.1226 74.8734 65.2625 70.875 69.4875C70.2608 66.127 68.6709 63.0217 66.3037 60.5588C63.5175 57.6562 60.0075 55.9538 56.925 54.9938C54.9487 54.3787 53.0363 55.08 51.7125 55.9688C50.2762 56.94 47.9137 58.125 45 58.125C42.0863 58.125 39.7238 56.94 38.2875 55.9725C36.9638 55.0762 35.0512 54.3787 33.075 54.9938C29.9925 55.9538 26.4825 57.6562 23.6962 60.5588C21.3283 63.0202 19.7372 66.1242 19.1213 69.4837C12.8526 62.8745 9.36339 54.1092 9.375 45ZM22.5188 72.6375C22.7288 68.3625 24.3037 65.3362 26.4 63.1575C28.6125 60.8512 31.5 59.4113 34.1925 58.5713C34.6725 58.4213 35.3888 58.5375 36.1912 59.0812C37.98 60.2887 41.0737 61.875 45 61.875C48.9263 61.875 52.02 60.2887 53.8088 59.0812C54.6112 58.5375 55.3275 58.4213 55.8075 58.5713C58.5037 59.4113 61.3837 60.8512 63.6 63.1575C65.6962 65.3325 67.2713 68.3663 67.4813 72.6375C61.1344 77.8156 53.1912 80.6378 45 80.625C36.8088 80.6378 28.8656 77.8156 22.5188 72.6375ZM35.625 37.5C35.625 32.3062 39.675 28.125 45 28.125C50.325 28.125 54.375 32.3062 54.375 37.5C54.375 42.6937 50.325 46.875 45 46.875C39.675 46.875 35.625 42.6975 35.625 37.5ZM45 24.375C43.2722 24.36 41.5588 24.6892 39.9596 25.3435C38.3604 25.9978 36.9076 26.964 35.6858 28.1858C34.464 29.4076 33.4978 30.8604 32.8435 32.4596C32.1892 34.0588 31.86 35.7722 31.875 37.5C31.875 44.73 37.5713 50.625 45 50.625C52.4287 50.625 58.125 44.73 58.125 37.5C58.125 30.27 52.4287 24.375 45 24.375Z" fill="white"/>
</svg>
